# xmcd CD database file generated by Grip 3.2.0
# 
# Track frame offsets:
#       150
#       15192
#       34977
#       53125
#       70672
#       92535
#       109230
#       135840
#       152507
#       177665
#       190977
#       209505
#       226340
#       239315
#       253310
#       266377
#       278177
#       290857
#       302855
#       321270
#       340022
# 
# Disc length: 4760 seconds
# 
# Revision: 8
# Processed by: cddbd v1.5.2PL0 Copyright (c) Steve Scherf et al.
# Submitted via: Grip 3.2.0
# 
DISCID=30129615
DTITLE=Stevie Wonder - Song Review - Zounds Gold
DYEAR=1997
DGENRE=Soul
TTITLE0=Isn't She Lovely
TTITLE1=I Just Called to Say I Love You
TTITLE2=Superstition
TTITLE3=Sir Duke
TTITLE4=Master Blaster (Jammin')
TTITLE5=Ebony and Ivory
TTITLE6=Happy Birthday
TTITLE7=Living for the City
TTITLE8=He's Misstra Know It All
TTITLE9=You Are the Sunshine of My Life
TTITLE10=Lately
TTITLE11=Part-Time Lover
TTITLE12=My Cherie Amour
TTITLE13=Yester-Me, Yester-You, Yesterday
TTITLE14=Uptight (Everything's Alright)
TTITLE15=I Was Made to Love Her
TTITLE16=For Once in My Life
TTITLE17=Signed, Sealed, Delivered, I'm Yours
TTITLE18=For Your Love
TTITLE19=Kiss Lonely Good-Bye
TTITLE20=Redemption Song
EXTD=YEAR: 1996
EXTT0=
EXTT1=
EXTT2=
EXTT3=
EXTT4=
EXTT5=
EXTT6=
EXTT7=
EXTT8=
EXTT9=
EXTT10=
EXTT11=
EXTT12=
EXTT13=
EXTT14=
EXTT15=
EXTT16=
EXTT17=
EXTT18=
EXTT19=
EXTT20=
PLAYORDER=
